<svg xmlns="http://www.w3.org/2000/svg" width="100" height="100"><g transform="translate(0 -270.542)"><circle cx="50" cy="320.542" r="50" fill="#fff"/><path d="M40 326.318l-6.665 11.546L40 349.411l-6.666 11.546h39.998l-6.667-11.546H53.334l-6.667-11.547z" fill="#dd2c00"/><path d="M50 332.09l6.667 11.547H70l6.666 11.546 6.666-11.546L90 332.09l6.666-11.546H83.332l-6.666 11.547H63.333zM40 314.771H26.668L20 326.318H6.67l6.666 11.546 6.667 11.547 6.666 11.546 6.666-11.546-6.666-11.547 6.666-11.546z" fill="#dd2c00"/><path d="M50 308.998l-6.666-11.547H30l-6.666-11.546-6.667 11.546-6.666 11.547-6.666 11.546h13.332l6.667-11.546h13.332zM60 326.318h13.333l6.666-11.547h13.333l-6.667-11.546L80 291.678l-6.666-11.546-6.667 11.546 6.667 11.547-6.667 11.546z" fill="#dd2c00"/><path d="M60 314.77l6.666-11.546L60 291.678l6.666-11.546H26.668l6.666 11.546h13.333l6.666 11.546z" fill="#dd2c00"/></g></svg>